<?xml version='1.0' encoding='utf-8'?>
<svg xmlns="http://www.w3.org/2000/svg" width="1440" height="900" viewBox="0 0 1440 900" role="img" aria-labelledby="title desc" xml:lang="de">
  <title id="title">Terrassenkonfigurator — D01-MASAUSTU — Designentwurf</title>
  <desc id="desc">Deutscher Designentwurf mit anthrazitfarbenen Akzenten, hellen Glaspaneelen und vereinfachter Modellillustration.</desc>
  <defs>
    <linearGradient id="bg" x2="0" y2="1"><stop stop-color="#edf2f3" /><stop offset="1" stop-color="#dde4e6" /></linearGradient>
    <linearGradient id="sky" x2="0" y2="1"><stop stop-color="#dbe8eb" /><stop offset="1" stop-color="#eef1ed" /></linearGradient>
    <linearGradient id="glass" x2="0" y2="1"><stop stop-color="#fff" stop-opacity=".85" /><stop offset="1" stop-color="#f9fbfb" stop-opacity=".75" /></linearGradient>
    <linearGradient id="roof" x2="0" y2="1"><stop stop-color="#394247" stop-opacity=".19" /><stop offset="1" stop-color="#fff" stop-opacity=".48" /></linearGradient>
    <filter id="shadow" x="-20%" y="-20%" width="140%" height="150%"><feDropShadow dx="0" dy="8" stdDeviation="14" flood-color="#29343a" flood-opacity=".12" /></filter>
    <filter id="soft"><feGaussianBlur stdDeviation="18" /></filter>
    <pattern id="grid" width="34" height="34" patternUnits="userSpaceOnUse"><path d="M34 0H0V34" fill="none" stroke="#63727a" stroke-opacity=".08" /></pattern>
  </defs>
  <rect width="1440" height="900" fill="url(#bg)" />
  <circle cx="1120" cy="300" r="220" fill="#fff" opacity=".28" filter="url(#soft)" />
  <rect x="0" y="76" width="1440" height="824" fill="url(#grid)" />
  
  <rect x="20" y="12" width="1400" height="52" rx="26" fill="#fff" fill-opacity=".74" stroke="#fff" stroke-opacity=".94" />
  <text x="44" y="42" font-family="Arial, sans-serif" font-size="14" font-weight="650" fill="#20272b">TERRASSENPLANER</text>
  <path d="M236 39h170" stroke="#b7c0c4" stroke-width="1" />
  <rect x="424" y="20" width="198" height="36" rx="18" fill="#fff" fill-opacity=".72" stroke="#fff" />
  <rect x="429" y="24" width="91" height="28" rx="14" fill="#383e42" />
  <text x="474" y="42" text-anchor="middle" font-family="Arial, sans-serif" font-size="14" font-weight="650" fill="#fff">Prime</text>
  <text x="567" y="42" text-anchor="middle" font-family="Arial, sans-serif" font-size="14" fill="#53616a">Premium</text>
  <text x="1111" y="42" font-family="Arial, sans-serif" font-size="14" fill="#53616a">Maße &amp; Ansicht</text>
  <rect x="1257" y="20" width="72" height="36" rx="18" fill="#fff" fill-opacity=".8" stroke="#fff" />
  <text x="1293" y="42" text-anchor="middle" font-family="Arial, sans-serif" font-size="14" fill="#30383d">Öffnen</text>
  <rect x="1335" y="20" width="72" height="36" rx="18" fill="#383e42" />
  <text x="1371" y="42" text-anchor="middle" font-family="Arial, sans-serif" font-size="14" font-weight="650" fill="#fff">Speichern</text>
  
  <rect x="20" y="84" width="354" height="796" rx="25" fill="url(#glass)" stroke="#fff" stroke-width="1.2" filter="url(#shadow)" />
  <text x="44" y="119" font-family="Arial, sans-serif" font-size="12" font-weight="700" letter-spacing="1.1" fill="#66747b">KONFIGURATOR</text>
  <text x="44" y="151" font-family="Arial, sans-serif" font-size="23" font-weight="680" fill="#20272b">Aufbau &amp; Maße</text>
  <text x="44" y="175" font-family="Arial, sans-serif" font-size="14" fill="#53616a">Maße der Überdachung festlegen.</text>
  <rect x="42" y="194" width="310" height="42" rx="21" fill="#fff" fill-opacity=".75" stroke="#e4e8e9" />
  <text x="44" y="270" font-family="Arial, sans-serif" font-size="14" font-weight="650" fill="#293238">Maße</text>
  <text x="322" y="270" text-anchor="end" font-family="Arial, sans-serif" font-size="12" fill="#748087">cm</text>
  <text x="44" y="299" font-family="Arial, sans-serif" font-size="14" fill="#47545b">Breite</text>
  <rect x="44" y="309" width="306" height="46" rx="12" fill="#fff" fill-opacity=".95" stroke="#aeb9be" />
  <text x="60" y="338" font-family="Arial, sans-serif" font-size="17" font-weight="620" fill="#20272b">500</text><text x="331" y="337" text-anchor="end" font-family="Arial, sans-serif" font-size="14" fill="#68767d">cm</text>
  <text x="44" y="380" font-family="Arial, sans-serif" font-size="14" fill="#47545b">Tiefe</text>
  <rect x="44" y="390" width="306" height="46" rx="12" fill="#fff" fill-opacity=".95" stroke="#aeb9be" />
  <text x="60" y="419" font-family="Arial, sans-serif" font-size="17" font-weight="620" fill="#20272b">300</text><text x="331" y="418" text-anchor="end" font-family="Arial, sans-serif" font-size="14" fill="#68767d">cm</text>
  <text x="44" y="461" font-family="Arial, sans-serif" font-size="14" fill="#47545b">Höhe hinten</text>
  <rect x="44" y="471" width="145" height="46" rx="12" fill="#fff" fill-opacity=".95" stroke="#aeb9be" />
  <text x="60" y="500" font-family="Arial, sans-serif" font-size="17" font-weight="620" fill="#20272b">240</text><text x="171" y="499" text-anchor="end" font-family="Arial, sans-serif" font-size="14" fill="#68767d">cm</text>
  <text x="205" y="461" font-family="Arial, sans-serif" font-size="14" fill="#47545b">Höhe vorne</text>
  <rect x="205" y="471" width="145" height="46" rx="12" fill="#fff" fill-opacity=".95" stroke="#aeb9be" />
  <text x="221" y="500" font-family="Arial, sans-serif" font-size="17" font-weight="620" fill="#20272b">220</text><text x="332" y="499" text-anchor="end" font-family="Arial, sans-serif" font-size="14" fill="#68767d">cm</text>
  <rect x="44" y="536" width="306" height="55" rx="14" fill="#edf1f2" fill-opacity=".86" />
  <circle cx="63" cy="563" r="10" fill="#fff" /><path d="M63 557v6l4 3" fill="none" stroke="#53616a" stroke-width="1.5" stroke-linecap="round" />
  <text x="82" y="560" font-family="Arial, sans-serif" font-size="12" font-weight="650" fill="#344047">Dachneigung</text><text x="82" y="578" font-family="Arial, sans-serif" font-size="12" fill="#65737a">Aus den Höhen berechnet</text>
  <text x="330" y="571" text-anchor="end" font-family="Arial, sans-serif" font-size="14" font-weight="650" fill="#383e42">—°</text>
  <line x1="44" y1="612" x2="350" y2="612" stroke="#d7dfe1" />
  <text x="44" y="641" font-family="Arial, sans-serif" font-size="14" font-weight="650" fill="#293238">Messpunkte</text>
  <rect x="44" y="654" width="149" height="60" rx="14" fill="#fff" stroke="#383e42" stroke-width="1.5" />
  <path d="M68 690v-18l15-11 16 11v18M78 690v-11h10v11" fill="none" stroke="#383e42" stroke-width="1.5" stroke-linejoin="round" />
  <text x="113" y="679" font-family="Arial, sans-serif" font-size="12" font-weight="650" fill="#293238">Hinten</text><text x="113" y="696" font-family="Arial, sans-serif" font-size="12" fill="#65737a">Profil unten</text>
  <rect x="201" y="654" width="149" height="60" rx="14" fill="#fff" fill-opacity=".72" stroke="#d8dfe1" />
  <path d="M222 690v-18l15-11 16 11v18M230 690v-11h10v11" fill="none" stroke="#68767d" stroke-width="1.5" stroke-linejoin="round" />
  <text x="267" y="679" font-family="Arial, sans-serif" font-size="12" font-weight="600" fill="#47545b">Vorne</text>
  <rect x="42" y="786" width="310" height="1" fill="#d7dfe1" />
  <text x="45" y="818" font-family="Arial, sans-serif" font-size="14" fill="#65737a">Bereich frei wählen</text>
  <rect x="189" y="798" width="161" height="50" rx="25" fill="#383e42" />
  <text x="269" y="828" text-anchor="middle" font-family="Arial, sans-serif" font-size="14" font-weight="650" fill="#fff">Zum Dach  →</text>
  
  <rect x="392" y="84" width="1028" height="796" rx="25" fill="url(#sky)" stroke="#fff" stroke-opacity=".95" filter="url(#shadow)" />
  <path d="M393 583C610 542 757 574 947 556c192-18 300 12 473-20v343H393z" fill="#dfe5df" />
  <path d="M393 670c212-43 366-12 554-27 197-15 301 16 473-17v254H393z" fill="#d7dfda" opacity=".63" />
  <text x="422" y="119" font-family="Arial, sans-serif" font-size="12" font-weight="650" letter-spacing=".6" fill="#65737a">3D-VORSCHAU</text>
  <rect x="1102" y="101" width="286" height="42" rx="21" fill="#fff" fill-opacity=".7" stroke="#fff" />
  <circle cx="1125" cy="122" r="5" fill="#77858c" /><text x="1140" y="126" font-family="Arial, sans-serif" font-size="12" fill="#53616a">Designvorschau · Ansicht drehen</text>
  
  <ellipse cx="925" cy="686" rx="338" ry="35" fill="#77858a" opacity=".2" filter="url(#soft)" />
  
  <path d="M622 392L1195 374L1195 390L622 409Z" fill="#515d62" />
  <path d="M622 409L1195 390" fill="none" stroke="#29343a" stroke-opacity=".45" stroke-width="2" />
  
  <path d="M624 406L1194 388L1337 540L732 555Z" fill="url(#roof)" stroke="#59666c" stroke-width="2" />
  <path d="M624 406L1194 388L1337 540L732 555Z" fill="#fff" fill-opacity=".17" />
  <g stroke="#738087" stroke-opacity=".55" stroke-width="1.2">
    <path d="M719 403L820 552" /><path d="M814 400L924 550" /><path d="M909 397L1028 548" /><path d="M1004 394L1133 545" /><path d="M1099 391L1237 542" />
  </g>
  
  <path d="M609 399L1196 380L1346 536L730 553Z" fill="none" stroke="#354046" stroke-width="9" stroke-linejoin="round" />
  <path d="M722 553L1347 535L1347 551L722 570Z" fill="#394247" />
  <path d="M722 553L1347 535" fill="none" stroke="#78848a" stroke-width="1.5" opacity=".75" />
  
  <path d="M739 563L758 563L754 698L737 699Z" fill="#465158" />
  <path d="M1325 556L1342 555L1345 689L1328 687Z" fill="#465158" />
  <path d="M1022 562L1039 561L1037 691L1020 692Z" fill="#515c62" />
  <path d="M1018 563L1043 562" stroke="#fff" stroke-width="2" opacity=".75" />
  
  <rect x="1006" y="548" width="49" height="158" rx="18" fill="none" stroke="#383e42" stroke-width="2" stroke-dasharray="5 4" opacity=".8" />
  <circle cx="1030" cy="580" r="13" fill="#fff" stroke="#383e42" stroke-width="2" /><path d="M1024 580h12m-6-6v12" stroke="#383e42" stroke-width="1.6" />
  
  <path d="M742 728L1335 716" stroke="#414c52" stroke-width="1.4" stroke-dasharray="5 5" />
  <path d="M742 720v16M1335 708v16" stroke="#414c52" stroke-width="1.4" />
  <rect x="968" y="708" width="132" height="31" rx="15.5" fill="#fff" fill-opacity=".88" stroke="#fff" />
  <text x="1034" y="728" text-anchor="middle" font-family="Arial, sans-serif" font-size="12" font-weight="650" fill="#384247">Pfosten auswählen</text>
  
  <rect x="794" y="166" width="333" height="48" rx="24" fill="#fff" fill-opacity=".72" stroke="#fff" filter="url(#shadow)" />
  <circle cx="821" cy="190" r="15" fill="#fff" fill-opacity=".8" /><path d="M826 184a7 7 0 1 0 2 9M826 184v5h-5" fill="none" stroke="#435057" stroke-width="1.5" stroke-linecap="round" stroke-linejoin="round" />
  <circle cx="863" cy="190" r="15" fill="#fff" fill-opacity=".8" /><path d="M858 184a7 7 0 1 1-2 9M858 184v5h5" fill="none" stroke="#94a0a4" stroke-width="1.5" stroke-linecap="round" stroke-linejoin="round" />
  <path d="M894 190h1" stroke="#c5cccf" />
  <rect x="905" y="175" width="98" height="30" rx="15" fill="#fff" fill-opacity=".74" />
  <path d="M920 185h10m-10 5h10m-10 5h10" stroke="#46535a" stroke-width="1.3" />
  <text x="970" y="194" text-anchor="middle" font-family="Arial, sans-serif" font-size="12" fill="#46535a">Maße</text>
  <path d="M1022 176v28" stroke="#d9dfe1" />
  <circle cx="1050" cy="190" r="15" fill="#fff" fill-opacity=".8" /><path d="M1057 190a7 7 0 1 1-2-5m2-1v5h-5" fill="none" stroke="#435057" stroke-width="1.5" stroke-linecap="round" stroke-linejoin="round" />
  <text x="422" y="847" font-family="Arial, sans-serif" font-size="12" fill="#65737a">DESIGNENTWURF · KEIN ANGEBOT</text>
  
  <rect x="1114" y="735" width="274" height="124" rx="20" fill="#fff" fill-opacity=".83" stroke="#fff" filter="url(#shadow)" />
  <text x="1134" y="763" font-family="Arial, sans-serif" font-size="14" font-weight="650" fill="#293238">Ihre Planung</text>
  <text x="1368" y="763" text-anchor="end" font-family="Arial, sans-serif" font-size="12" fill="#65737a">Prime · Glas</text>
  <text x="1134" y="786" font-family="Arial, sans-serif" font-size="12" fill="#65737a">500 × 300 cm · Preis noch nicht verfügbar</text>
  <rect x="1134" y="801" width="148" height="39" rx="19.5" fill="#383e42" />
  <text x="1208" y="825" text-anchor="middle" font-family="Arial, sans-serif" font-size="12" font-weight="650" fill="#fff">Übersicht</text>
  <rect x="1289" y="801" width="79" height="39" rx="19.5" fill="#fff" fill-opacity=".95" stroke="#aeb9be" />
  <text x="1328" y="825" text-anchor="middle" font-family="Arial, sans-serif" font-size="12" font-weight="600" fill="#354046">PDF</text>
<text x="58" y="220" font-family="Arial, sans-serif" font-size="14" font-weight="600" fill="#383e42">Konstruktion</text><text x="329" y="220" text-anchor="end" font-family="Arial, sans-serif" font-size="16" fill="#383e42">⌄</text></svg>